<?xml version="1.0" standalone="no"?>
<!DOCTYPE svg PUBLIC "-//W3C//DTD SVG 20010904//EN"
 "http://www.w3.org/TR/2001/REC-SVG-20010904/DTD/svg10.dtd">
<svg version="1.0" xmlns="http://www.w3.org/2000/svg"
 width="930.000000pt" height="930.000000pt" viewBox="0 0 930.000000 930.000000"
 preserveAspectRatio="xMidYMid meet">
<metadata>
Created by potrace 1.14, written by Peter Selinger 2001-2017
</metadata>
<g transform="translate(0.000000,930.000000) scale(0.100000,-0.100000)"
fill="#000000" stroke="none">
<path d="M4467 9269 c-267 -65 -476 -253 -572 -514 -14 -38 -49 -133 -76 -210
-28 -77 -66 -180 -84 -230 -18 -49 -63 -173 -100 -275 -36 -102 -72 -201 -80
-220 -8 -19 -50 -134 -94 -255 -44 -121 -143 -395 -221 -610 -79 -214 -160
-439 -182 -500 -22 -60 -43 -120 -45 -132 -4 -16 -25 -28 -91 -53 -164 -60
-297 -109 -423 -154 -69 -25 -137 -49 -150 -55 -13 -5 -114 -42 -224 -81 -110
-39 -218 -78 -240 -87 -22 -8 -164 -60 -315 -115 -151 -54 -291 -105 -310
-112 -19 -8 -199 -73 -400 -146 -450 -162 -504 -190 -632 -323 -150 -155 -227
-367 -215 -591 7 -127 25 -197 81 -311 78 -157 200 -281 354 -359 26 -13 558
-209 1182 -435 624 -227 1144 -416 1155 -421 11 -5 63 -24 115 -42 75 -26 97
-39 107 -59 12 -25 25 -59 132 -359 27 -74 65 -178 84 -230 35 -93 138 -377
338 -930 55 -151 103 -282 106 -290 3 -8 7 -19 9 -25 22 -80 252 -683 279
-730 230 -411 783 -531 1165 -253 150 110 231 229 315 463 34 95 123 339 150
415 7 19 77 211 154 425 78 215 148 406 156 425 8 19 100 274 205 565 106 292
197 535 203 541 10 10 261 107 307 119 8 2 89 31 180 65 91 34 177 65 191 70
14 4 100 35 190 68 90 33 247 91 349 128 102 37 210 76 240 87 30 11 177 64
325 119 149 54 277 101 285 103 8 2 89 31 180 65 91 34 184 67 207 75 53 16
165 77 218 118 158 122 269 303 303 492 13 76 7 276 -11 345 -35 133 -130 295
-224 381 -43 39 -140 107 -189 132 -43 22 -259 102 -1074 397 -382 138 -704
255 -715 260 -23 9 -264 97 -550 200 -110 40 -205 77 -212 82 -7 5 -17 26 -23
46 -6 20 -15 46 -20 57 -9 20 -79 215 -127 350 -13 39 -28 79 -33 90 -5 11
-113 308 -240 660 -127 352 -235 649 -240 660 -5 11 -59 160 -121 330 -61 171
-123 333 -137 360 -32 65 -110 171 -159 216 -91 84 -231 162 -348 195 -93 25
-291 27 -388 3z m310 -1607 c68 -185 134 -366 147 -402 13 -36 110 -303 215
-595 106 -291 196 -539 201 -550 5 -11 23 -60 41 -110 88 -249 163 -362 313
-475 93 -70 127 -84 656 -275 206 -74 337 -122 515 -188 66 -24 348 -127 628
-228 279 -101 507 -186 507 -189 0 -5 -107 -45 -525 -195 -49 -18 -173 -63
-275 -100 -102 -38 -203 -74 -225 -82 -22 -8 -220 -80 -440 -160 -220 -80
-436 -159 -480 -174 -176 -62 -238 -89 -310 -134 -144 -90 -262 -234 -322
-395 -90 -240 -115 -306 -118 -320 -5 -18 -60 -172 -80 -220 -7 -19 -52 -141
-98 -270 -246 -681 -403 -1113 -441 -1212 -14 -36 -26 -71 -26 -77 0 -24 -17
-9 -29 27 -7 20 -76 210 -153 421 -76 211 -145 400 -152 420 -7 20 -51 142
-99 271 -47 129 -142 393 -212 585 -151 415 -172 466 -223 542 -84 123 -220
235 -349 287 -32 13 -272 101 -533 195 -261 95 -484 176 -495 180 -50 21 -127
49 -535 196 -239 86 -444 160 -455 165 -11 4 -44 16 -72 26 -29 10 -53 20 -53
23 0 4 89 38 198 78 465 169 531 193 568 207 22 8 147 53 279 101 132 48 281
102 330 120 50 18 248 90 440 160 407 148 474 182 594 305 46 47 117 151 144
210 17 36 105 273 112 300 4 15 113 315 207 570 28 74 67 182 88 240 117 331
386 1060 390 1060 3 0 60 -152 127 -338z"/>
</g>
</svg>
